<?xml version="1.0" encoding="UTF-8"?>
<svg id="Layer_1" xmlns="http://www.w3.org/2000/svg" version="1.1" viewBox="0 0 341 34.4">
  <!-- Generator: Adobe Illustrator 29.0.0, SVG Export Plug-In . SVG Version: 2.1.0 Build 186)  -->
  <defs>
    <style>
      .st0 {
        fill: #000034;
      }
    </style>
  </defs>
  <polygon class="st0" points="96.6 24.3 83.8 0 70.1 25.4 70.1 33.8 72.4 33.8 83.7 11.5 96.4 34.4 96.8 34.4 109.5 11.5 120.8 33.8 123.1 33.8 123.1 25.4 109.4 0 96.6 24.3"/>
  <path class="st0" d="M28.1.9s-.8.1-1.2.1-.8,0-1.2-.1c-.4-.1-1.3-.1-1.7-.2v14c-1.9,0-3.2.1-5,.1h-8c-1.7,0-3.1-.1-5-.1V.7c-.5.1-1.4.1-1.8.2-.4,0-.8.1-1.3.1s-1.2-.1-1.2-.1c0,0-1.3,0-1.7-.2v33c.8,0,2.5,0,3.4,0s1.7,0,2.5,0v-16.6c1.9,0,3.2-.1,5-.1h8c1.7,0,3.1,0,5,.1v16.6c.8,0,2,0,2.5,0,.9,0,2.6,0,3.4,0V.7c-.5,0-1.7.2-1.7.2"/>
  <path class="st0" d="M40.7.7v33h19.1s-.6-.8,0-2.9c0,0-8.1,1-12.9.3v-13.7s4.6-.2,11.4.5c0,0-.6-1.3,0-3.1,0,0-8.7.7-11.4.4V3.4s5.9-.4,12.5.4c0,0-.7-1.5,0-3.1,0,0-18.7,0-18.7,0Z"/>
  <path class="st0" d="M153.6,33.8V.7h4.1l20.5,23.2V.7s2.5.6,4.8,0v33h-3.7l-21-23.6v23.6c0,0-2.6-.2-4.7,0"/>
  <path class="st0" d="M311.6,33.8V.7h4.1l20.5,23.2V.7s2.5.6,4.8,0v33h-3.7l-21-23.6v23.6c0,0-2.7-.2-4.7,0"/>
  <path class="st0" d="M141,17.1v16.6c-.8,0-2,0-2.5,0-.9,0-2.6,0-3.4,0V.7c.4.1,1.7.2,1.7.2,0,0,.8,0,1.2,0s.8,0,1.2-.1,1.3-.1,1.7-.2v16.4Z"/>
  <path class="st0" d="M259.5.7h-26.5c.2.7.3,1.3.3,1.7s-.1,1.1-.3,1.8c.7,0,1.5-.2,2.4-.3s1.8,0,2.8-.2c1,0,1.9,0,2.9,0h2.1v30.1c.8,0,2.5,0,3.4,0s1.7,0,2.5,0V3.6h2.1c1,0,1.9,0,2.9,0,1,0,1.9,0,2.8.2.9.1,1.7.2,2.4.3-.2-.7-.3-1.3-.3-1.7.2-.4.3-1,.5-1.8"/>
  <path class="st0" d="M224.8,3.3s-8.1-5.8-20.8-1.9c0,0-11.3,3.1-11.6,15.9,0,0-1.2,17.1,17.8,17.1,0,0,6.7.3,14.2-2.2v-13.7s-2.9.8-5.9,0v12.3s-1.2,1.7-6.7,1.8c0,0-12.6-.3-12.8-15.3,0,0-.9-13.6,12.3-14.7,0,0,5.9-.4,10.1,4.7h1.9l1.5-4Z"/>
  <path class="st0" d="M294.5,23.9c-.6,1.9-1.5,3.4-2.6,4.6s-2.4,2.1-3.9,2.7-3.1.9-4.8.9-3.3-.3-4.8-.9-2.8-1.5-3.9-2.7-2-2.8-2.6-4.6c-.6-1.9-.9-4.1-.9-6.7s.3-4.8.9-6.7,1.5-3.4,2.6-4.6c1.1-1.2,2.4-2.1,3.9-2.7s3.1-.9,4.8-.9,3.3.3,4.8.9c1.5.6,2.8,1.5,3.9,2.7,1.1,1.2,2,2.8,2.6,4.6.6,1.9.9,4.1.9,6.7.1,2.6-.3,4.8-.9,6.7M300.8,10c-.9-2.1-2.2-4-3.9-5.4-1.7-1.5-3.7-2.6-6-3.4C288.6.4,286,0,283.3,0s-5.3.4-7.6,1.2c-2.3.8-4.3,1.9-6,3.4-1.7,1.5-3,3.3-3.9,5.4-.9,2.1-1.4,4.6-1.4,7.3s.5,5.2,1.4,7.3c.9,2.1,2.2,4,3.9,5.4,1.7,1.5,3.7,2.6,6,3.3s4.9,1.1,7.6,1.1,5.3-.4,7.7-1.1c2.3-.7,4.3-1.8,6-3.3s3-3.3,3.9-5.4,1.4-4.6,1.4-7.3c0-2.7-.6-5.2-1.5-7.3"/>
</svg>